<svg width="50" height="50" viewBox="0 0 50 50" fill="none" xmlns="http://www.w3.org/2000/svg">
<path fill-rule="evenodd" clip-rule="evenodd" d="M43.75 14.303L25 3.12492L6.25 14.303V35.6968L25 46.8749L43.75 35.6968V14.303ZM26.5625 0.418671C26.0874 0.144395 25.5486 0 25 0C24.4514 0 23.9126 0.144395 23.4375 0.418671L4.6875 11.5968C4.21245 11.8711 3.81797 12.2655 3.54369 12.7406C3.26942 13.2156 3.12501 13.7545 3.125 14.303V35.6968C3.12501 36.2453 3.26942 36.7842 3.54369 37.2593C3.81797 37.7343 4.21245 38.1288 4.6875 38.403L23.4375 49.5812C23.9126 49.8554 24.4514 49.9998 25 49.9998C25.5486 49.9998 26.0874 49.8554 26.5625 49.5812L45.3125 38.403C45.7875 38.1288 46.182 37.7343 46.4563 37.2593C46.7306 36.7842 46.875 36.2453 46.875 35.6968V14.303C46.875 13.7545 46.7306 13.2156 46.4563 12.7406C46.182 12.2655 45.7875 11.8711 45.3125 11.5968L26.5625 0.418671Z" fill="#A7A7A7"/>
</svg>
